<svg width="90" height="69" viewBox="0 0 90 69" fill="none" xmlns="http://www.w3.org/2000/svg">
<path d="M25.3797 62C21.8967 61.7821 19.6579 58.2069 20.9833 54.9785L25.3752 44.2785C27.3939 39.3609 23.7257 33.9819 18.4107 34.0652L15.176 34.1157C12.3305 34.1603 9.99996 31.8658 9.99996 29.02V5.0961C9.99996 2.2815 12.2818 0 15.0961 0H23.8636C47.9738 3.76222 47.2005 29.0367 25.3797 62Z" fill="#E4EEFF"/>
<path d="M72.8357 62C69.3527 61.7821 67.114 58.2069 68.4393 54.9785L72.8313 44.2785C74.8499 39.3609 71.1818 33.9819 65.8667 34.0652L62.632 34.1157C59.7866 34.1603 57.456 31.8658 57.456 29.02V5.0961C57.456 2.2815 59.7379 0 62.5521 0H71.3197C95.4302 3.76222 94.6566 29.0367 72.8357 62Z" fill="#E4EEFF"/>
<path d="M15.3797 69C11.8967 68.7821 9.65793 65.2069 10.9833 61.9785L15.3752 51.2785C17.3939 46.3609 13.7257 40.9819 8.41065 41.0652L5.17597 41.1157C2.33051 41.1603 -4.3869e-05 38.8658 -4.3869e-05 36.02V12.0961C-4.3869e-05 9.2815 2.28183 7 5.09605 7H13.8636C37.9738 10.7622 37.2005 36.0367 15.3797 69Z" fill="#0E58D1"/>
<path d="M62.8357 69C59.3527 68.7821 57.114 65.2069 58.4393 61.9785L62.8313 51.2785C64.8499 46.3609 61.1818 40.9819 55.8667 41.0652L52.632 41.1157C49.7866 41.1603 47.456 38.8658 47.456 36.02V12.0961C47.456 9.2815 49.7379 7 52.5521 7H61.3197C85.4302 10.7622 84.6566 36.0367 62.8357 69Z" fill="#0E58D1"/>
</svg>
